<svg width="301" height="324" viewBox="0 0 301 324" fill="none" xmlns="http://www.w3.org/2000/svg">
<path fill-rule="evenodd" clip-rule="evenodd" d="M90.982 307.179L90.8997 307.143C72.9311 299.438 57.0587 288.711 43.3439 274.988L43.3096 274.954L43.2757 274.919C29.5073 260.855 18.7997 244.249 11.1302 225.206L11.1075 225.15L11.0855 225.093C3.64872 205.917 0 184.908 0 162.177C0 139.446 3.64872 118.437 11.0855 99.2614L11.1075 99.2047L11.1302 99.1484C18.7996 80.1054 29.5144 63.6156 43.3095 49.8028C57.0376 35.7893 72.9482 25.0303 90.9827 17.5778C109.352 9.82902 129.081 5.99414 150.068 5.99414C170.785 5.99414 190.247 9.82857 208.349 17.5777C226.633 25.0226 242.682 35.7759 256.423 49.8018C270.219 63.6149 280.934 80.105 288.603 99.1484C296.339 118.355 300.135 139.404 300.135 162.177C300.135 184.95 296.339 205.999 288.603 225.206C280.934 244.249 270.226 260.855 256.458 274.919L256.424 274.954L256.389 274.988C242.65 288.736 226.623 299.465 208.383 307.164L208.349 307.179L208.315 307.193C190.218 314.666 170.77 318.36 150.068 318.36C129.114 318.36 109.415 314.672 91.0649 307.212L90.982 307.179ZM204.722 26.2652C187.843 19.0273 169.625 15.4084 150.068 15.4084C130.242 15.4084 111.756 19.0273 94.61 26.2652C77.7316 33.2351 62.8625 43.2877 50.0028 56.4232C37.143 69.2906 27.0964 84.7047 19.8628 102.665C12.8971 120.626 9.41423 140.463 9.41423 162.177C9.41423 183.891 12.8971 203.728 19.8628 221.689C27.0964 239.65 37.143 255.198 50.0028 268.333C62.8625 281.201 77.7316 291.253 94.61 298.491C111.756 305.461 130.242 308.946 150.068 308.946C169.625 308.946 187.843 305.461 204.722 298.491C221.868 291.253 236.871 281.201 249.731 268.333C262.59 255.198 272.637 239.65 279.871 221.689C287.104 203.728 290.721 183.891 290.721 162.177C290.721 140.463 287.104 120.626 279.871 102.665C272.637 84.7047 262.59 69.2906 249.731 56.4232C236.871 43.2877 221.868 33.2351 204.722 26.2652ZM214.738 246.662L214.753 246.644C222.997 236.697 229.42 224.673 233.921 210.411L233.944 210.34L233.967 210.269C238.69 196.092 241.12 180.094 241.12 162.177C241.12 144.26 238.69 128.262 233.967 114.085L233.944 114.014L233.921 113.943C229.424 99.6942 223.019 87.8432 214.827 78.2003L214.745 78.1043L214.666 78.006C206.705 68.1086 197.278 60.7332 186.343 55.7379C175.329 50.7067 163.278 48.1447 150.068 48.1447C136.857 48.1447 124.807 50.7067 113.793 55.7379C102.832 60.7444 93.2402 68.149 84.9889 78.102C77.0077 87.7841 70.5679 99.696 65.7899 114.014C61.316 128.219 59.0151 144.243 59.0151 162.177C59.0151 180.111 61.316 196.136 65.7898 210.34C70.5578 224.629 76.9907 236.683 84.9881 246.652C93.2205 256.317 102.809 263.599 113.793 268.616C124.807 273.648 136.857 276.21 150.068 276.21C163.278 276.21 175.329 273.648 186.343 268.616C197.335 263.595 206.781 256.313 214.738 246.662ZM77.7316 252.651C68.8905 241.66 61.9248 228.525 56.8345 213.245C52.0121 197.965 49.6009 180.942 49.6009 162.177C49.6009 143.412 52.0121 126.39 56.8345 111.11C61.9248 95.8296 68.8905 82.8282 77.7316 72.1053C86.8406 61.1144 97.557 52.8042 109.881 47.1748C122.205 41.5453 135.6 38.7305 150.068 38.7305C164.535 38.7305 177.93 41.5453 190.254 47.1748C202.578 52.8042 213.161 61.1144 222.002 72.1053C231.111 82.8282 238.076 95.8296 242.899 111.11C247.989 126.39 250.534 143.412 250.534 162.177C250.534 180.942 247.989 197.965 242.899 213.245C238.076 228.525 231.111 241.66 222.002 252.651C213.161 263.374 202.578 271.55 190.254 277.18C177.93 282.809 164.535 285.624 150.068 285.624C135.6 285.624 122.205 282.809 109.881 277.18C97.557 271.55 86.8406 263.374 77.7316 252.651Z" fill="black"/>
<path fill-rule="evenodd" clip-rule="evenodd" d="M233.066 239.678L233.074 239.652C237.348 225.266 239.569 208.31 239.569 188.658V138.548C239.569 118.893 237.347 102.014 233.08 87.7738L233.074 87.7526C228.779 73.2981 222.705 61.6358 215.041 52.4998L215.017 52.4719L214.994 52.4437C207.457 43.3171 198.303 36.5167 187.429 31.9583L187.372 31.9344L187.315 31.9098C176.515 27.2151 164.118 24.7677 149.96 24.7677C136.393 24.7677 124.257 27.1972 113.416 31.9098L113.376 31.927L113.336 31.9438C102.569 36.5076 93.2919 43.3402 85.4411 52.5547C77.6466 61.703 71.4478 73.3726 67.0276 87.8248L67.021 87.8465C62.636 102.061 60.3517 118.915 60.3517 138.548V188.658C60.3517 208.267 62.6304 225.182 67.0132 239.532C71.5626 253.852 77.8282 265.478 85.6436 274.651C93.4944 283.866 102.771 290.699 113.539 295.262C124.4 299.866 136.565 302.24 150.163 302.24C164.351 302.24 176.776 299.849 187.597 295.262C198.351 290.704 207.541 283.888 215.243 274.706C222.902 265.577 228.901 253.996 233.059 239.704L233.066 239.678ZM58.025 85.0714C53.3 100.388 50.9375 118.214 50.9375 138.548V188.658C50.9375 208.992 53.3 226.884 58.025 242.333C62.885 257.65 69.7026 270.458 78.4776 280.757C87.2526 291.056 97.7152 298.78 109.865 303.93C122.015 309.08 135.448 311.655 150.163 311.655C165.418 311.655 179.12 309.08 191.271 303.93C203.421 298.78 213.816 291.056 222.456 280.757C231.096 270.458 237.643 257.65 242.098 242.333C246.688 226.884 248.983 208.992 248.983 188.658V138.548C248.983 118.214 246.688 100.388 242.098 85.0714C237.508 69.6225 230.893 56.7485 222.253 46.4493C213.748 36.15 203.353 28.4256 191.068 23.276C178.918 17.9943 165.215 15.3535 149.96 15.3535C135.245 15.3535 121.813 17.9943 109.663 23.276C97.5127 28.4256 87.0501 36.15 78.2751 46.4493C69.5001 56.7485 62.75 69.6225 58.025 85.0714ZM92.0452 97.3513C95.0152 85.8636 99.2002 76.4887 104.6 69.2264C110 61.9641 116.48 56.6165 124.04 53.1834C131.735 49.6183 140.375 47.8357 149.96 47.8357C160.085 47.8357 168.995 49.6183 176.69 53.1834C184.385 56.6165 190.866 61.9641 196.131 69.2264C201.396 76.4887 205.378 85.8636 208.078 97.3513C210.778 108.707 212.128 122.307 212.128 138.152V188.658C212.128 204.635 210.778 218.367 208.078 229.855C205.513 241.21 201.598 250.585 196.333 257.98C191.203 265.242 184.723 270.656 176.893 274.221C169.198 277.654 160.288 279.37 150.163 279.37C140.713 279.37 132.14 277.654 124.445 274.221C116.75 270.656 110.135 265.242 104.6 257.98C99.2002 250.585 95.0152 241.21 92.0452 229.855C89.2101 218.367 87.7926 204.635 87.7926 188.658V138.152C87.7926 122.307 89.2101 108.707 92.0452 97.3513ZM217.252 231.968C214.488 244.187 210.164 254.78 204.015 263.422C197.957 271.994 190.191 278.51 180.794 282.789L180.761 282.804L180.729 282.818C171.608 286.887 161.348 288.785 150.163 288.785C139.552 288.785 129.651 286.852 120.61 282.818L120.548 282.791L120.488 282.763C111.298 278.505 103.503 272.071 97.1128 263.686L97.0543 263.61L96.9975 263.532C90.7359 254.958 86.1255 244.427 82.9373 232.237L82.9208 232.174L82.9051 232.111C79.8372 219.679 78.3784 205.149 78.3784 188.658V138.152C78.3784 121.79 79.8377 107.382 82.9113 95.0709L82.9208 95.0328L82.9306 94.9948C86.1151 82.6775 90.7324 72.0993 97.0456 63.609C103.301 55.196 110.99 48.7773 120.115 44.6266C129.194 40.4264 139.2 38.4215 149.96 38.4215C161.166 38.4215 171.45 40.3924 180.588 44.6134C189.863 48.7648 197.596 55.2081 203.752 63.7007C209.94 72.2348 214.34 82.8515 217.24 95.1844C220.155 107.453 221.542 121.82 221.542 138.152V188.658C221.542 205.105 220.158 219.585 217.252 231.968Z" fill="black"/>
<path fill-rule="evenodd" clip-rule="evenodd" d="M256.076 45.844C242.416 31.4276 226.456 20.1829 208.194 12.1097C189.933 4.03658 170.162 0 148.881 0C127.168 0 107.253 4.03658 89.1359 12.1097C71.0183 20.1829 55.2732 31.4276 41.9007 45.844C28.672 60.2603 18.391 77.1274 11.0577 96.4453C3.8682 115.763 0.273438 136.739 0.273438 159.373L0.273438 164.346C0.273438 187.124 3.8682 208.244 11.0577 227.706C18.391 247.024 28.7439 263.891 42.1164 278.308C55.4889 292.724 71.234 303.969 89.3515 312.042C107.613 319.971 127.6 323.935 149.312 323.935C170.449 323.935 190.149 319.971 208.41 312.042C226.671 303.969 242.632 292.724 256.292 278.308C269.952 263.891 280.593 247.024 288.214 227.706C295.834 208.244 299.645 187.124 299.645 164.346V159.373C299.645 136.739 295.834 115.763 288.214 96.4453C280.593 77.1274 269.88 60.2603 256.076 45.844ZM93.1412 303.424C76.1923 295.865 61.5083 285.37 49.0185 271.905C36.5207 258.432 26.7985 242.631 19.8741 224.404C13.116 206.095 9.68766 186.104 9.68766 164.346V159.373C9.68766 137.762 13.1151 117.919 19.8699 99.758C26.7992 81.5144 36.4585 65.7039 48.8199 52.2278C61.3164 38.7607 76.0086 28.2658 92.9676 20.7089C109.769 13.2222 128.363 9.41423 148.881 9.41423C168.938 9.41423 187.403 13.2114 204.388 20.7201C221.515 28.2918 236.445 38.813 249.243 52.3192L249.26 52.3371L249.277 52.3548C262.202 65.8535 272.265 81.6714 279.456 99.9001C286.606 118.023 290.231 137.815 290.231 159.373V164.346C290.231 186.05 286.605 205.99 279.453 224.26C272.254 242.506 262.25 258.332 249.458 271.832C236.668 285.331 221.748 295.848 204.633 303.419C187.634 310.794 169.229 314.521 149.312 314.521C128.788 314.521 110.105 310.783 93.1412 303.424ZM107.9 253.872C97.1162 245.366 89.064 233.473 83.7437 218.191C78.5673 202.766 75.979 184.818 75.979 164.346V158.94C75.979 138.469 78.5673 120.665 83.7437 105.528C88.9202 90.3905 96.8286 78.6412 107.469 70.2797C118.253 61.9182 132.057 57.7375 148.881 57.7375C164.841 57.7375 178.43 61.9903 189.645 70.4959C200.861 79.0016 209.416 90.895 215.312 106.176C221.351 121.314 224.371 138.901 224.371 158.94V164.346C224.371 184.818 221.423 202.694 215.528 217.975C209.632 233.256 201.077 245.15 189.861 253.656C178.645 262.161 165.129 266.414 149.312 266.414C132.632 266.414 118.829 262.233 107.9 253.872ZM101.676 62.8585L101.701 62.8398C114.49 52.9237 130.467 48.3232 148.881 48.3232C166.607 48.3232 182.266 53.0844 195.334 62.9948C208.145 72.7103 217.656 86.1189 224.075 102.737C230.633 119.195 233.785 137.993 233.785 158.94V164.346C233.785 185.698 230.713 204.769 224.311 221.364C217.891 238.005 208.374 251.431 195.55 261.157C182.497 271.056 166.916 275.828 149.312 275.828C131.015 275.828 115.076 271.216 102.18 261.349L102.125 261.306L102.071 261.264C89.6424 251.462 80.6564 237.956 74.8529 221.287L74.8355 221.237L74.8186 221.186C69.247 204.583 66.5648 185.585 66.5648 164.346V158.94C66.5648 137.708 69.2454 118.83 74.8359 102.481C80.4916 85.9429 89.3391 72.5534 101.652 62.8775L101.676 62.8585Z" fill="black"/>
<path fill-rule="evenodd" clip-rule="evenodd" d="M227.705 265.526L227.725 265.504C237.173 254.609 244.571 241.256 249.807 225.261C255.017 209.343 257.701 191.118 257.701 170.475V154.876C257.701 134.251 254.957 116.122 249.64 100.367L249.626 100.326L249.612 100.285C244.377 84.2909 236.978 70.9379 227.53 60.0427L227.514 60.0237L227.497 60.0046C218.04 48.9808 206.817 40.6824 193.758 35.0195L193.725 35.0053L193.693 34.9908C180.632 29.2094 166.005 26.2424 149.669 26.2424C133.474 26.2424 118.91 29.2055 105.841 34.9908L105.822 34.999L105.804 35.007C92.862 40.67 81.6113 48.9812 72.0002 60.0461C62.5392 70.9572 55.0705 84.3309 49.7061 100.346L49.6991 100.367C44.3814 116.122 41.6379 134.251 41.6379 154.876V170.475C41.6379 191.085 44.3773 209.278 49.6958 225.17C55.182 241.173 62.7704 254.545 72.3539 265.46C81.9658 276.408 93.233 284.742 106.211 290.547C119.285 296.208 133.856 299.109 150.058 299.109C166.406 299.109 181.046 296.202 194.115 290.541C207.204 284.741 218.367 276.431 227.686 265.548L227.705 265.526ZM197.892 299.164C183.503 305.404 167.558 308.523 150.058 308.523C132.688 308.523 116.808 305.404 102.419 299.164C88.1594 292.795 75.7797 283.63 65.2796 271.672C54.7794 259.713 46.6127 245.219 40.7793 228.19C35.0755 211.162 32.2236 191.923 32.2236 170.475V154.876C32.2236 133.428 35.0755 114.255 40.7793 97.3563C46.483 80.3277 54.5202 65.834 64.8907 53.875C75.3908 41.786 87.7705 32.6218 102.03 26.3823C116.419 20.0129 132.299 16.8281 149.669 16.8281C167.17 16.8281 183.114 20.0129 197.503 26.3823C211.892 32.6218 224.272 41.786 234.643 53.875C245.013 65.834 252.985 80.3277 258.559 97.3563C264.263 114.255 267.115 133.428 267.115 154.876V170.475C267.115 191.923 264.328 211.162 258.754 228.19C253.18 245.219 245.207 259.713 234.837 271.672C224.596 283.63 212.281 292.795 197.892 299.164ZM99.3077 81.9526C105.271 73.6333 112.465 67.3938 120.891 63.2342C129.317 58.9446 138.91 56.7997 149.669 56.7997C160.429 56.7997 170.086 58.9446 178.642 63.2342C187.198 67.3938 194.392 73.6333 200.225 81.9526C206.189 90.1419 210.661 100.346 213.642 112.565C216.753 124.654 218.309 138.628 218.309 154.486V170.475C218.309 186.334 216.753 200.373 213.642 212.592C210.661 224.811 206.253 235.145 200.42 243.594C194.587 251.913 187.457 258.218 179.031 262.507C170.605 266.667 160.947 268.747 150.058 268.747C139.299 268.747 129.706 266.667 121.28 262.507C112.854 258.218 105.595 251.913 99.5022 243.594C93.5391 235.145 89.002 224.811 85.8909 212.592C82.7797 200.373 81.2242 186.334 81.2242 170.475V154.486C81.2242 138.628 82.7797 124.654 85.8909 112.565C89.002 100.346 93.4743 90.1419 99.3077 81.9526ZM76.7707 110.23C73.4196 123.257 71.8099 138.043 71.8099 154.486V170.475C71.8099 186.926 73.4212 201.771 76.7677 214.914C80.1022 228.01 85.0571 239.453 91.8105 249.022L91.8581 249.09L91.9069 249.156C98.7905 258.556 107.153 265.879 117.009 270.897L117.061 270.923L117.113 270.949C127.011 275.835 138.064 278.161 150.058 278.161C162.163 278.161 173.285 275.843 183.198 270.949L183.25 270.923L183.302 270.897C193.202 265.857 201.478 258.483 208.128 248.999L208.148 248.971L208.167 248.943C214.774 239.373 219.583 227.941 222.777 214.868C226.116 201.736 227.723 186.907 227.723 170.475V154.486C227.723 138.063 226.117 123.291 222.774 110.276C219.577 97.1987 214.687 85.8424 207.885 76.4788C201.218 66.9924 192.854 59.6872 182.81 54.7929C172.803 49.7864 161.69 47.3855 149.669 47.3855C137.653 47.3855 126.58 49.7854 116.672 54.8183C106.761 59.7223 98.4258 67.0232 91.656 76.4681L91.648 76.4794L91.6399 76.4907C84.9864 85.8314 80.0987 97.1644 76.7707 110.23Z" fill="black"/>
</svg>
