<svg width="562" height="58" viewBox="0 0 562 58" fill="none" xmlns="http://www.w3.org/2000/svg">
<path d="M34.826 36.6459H42.4824C42.2374 39.5656 41.4207 42.1688 40.0323 44.4555C38.644 46.7218 36.6941 48.5083 34.1828 49.815C31.6715 51.1217 28.6192 51.775 25.0258 51.775C22.2694 51.775 19.7888 51.285 17.5837 50.305C15.3787 49.3045 13.4901 47.8958 11.918 46.0786C10.3458 44.2411 9.14123 42.0258 8.30413 39.4329C7.48744 36.8399 7.0791 33.9407 7.0791 30.7352V27.0295C7.0791 23.824 7.49765 20.9247 8.33475 18.3318C9.19227 15.7388 10.4173 13.5235 12.0098 11.686C13.6024 9.82803 15.5114 8.40904 17.7368 7.42902C19.9827 6.449 22.5042 5.95898 25.3014 5.95898C28.854 5.95898 31.8553 6.61233 34.3053 7.91903C36.7554 9.22572 38.6542 11.0326 40.0017 13.3398C41.3697 15.6469 42.2068 18.2909 42.513 21.2718H34.8566C34.6524 19.3526 34.2033 17.709 33.5091 16.3411C32.8353 14.9731 31.8349 13.9319 30.5078 13.2173C29.1806 12.4823 27.4452 12.1147 25.3014 12.1147C23.5455 12.1147 22.0142 12.4414 20.7075 13.0948C19.4008 13.7481 18.3085 14.7077 17.4306 15.9736C16.5526 17.2394 15.8891 18.8014 15.4399 20.6593C15.0112 22.4969 14.7968 24.5998 14.7968 26.9682V30.7352C14.7968 32.9811 14.9907 35.0228 15.3787 36.8603C15.787 38.6774 16.3995 40.2393 17.2162 41.546C18.0533 42.8527 19.115 43.8634 20.4013 44.578C21.6876 45.2926 23.229 45.6499 25.0258 45.6499C27.2104 45.6499 28.9765 45.3028 30.324 44.6086C31.6919 43.9144 32.723 42.9038 33.4172 41.5767C34.1318 40.2291 34.6014 38.5856 34.826 36.6459Z" fill="white"/>
<path d="M91.4345 25.7713V30.5795H72.1097V25.7713H91.4345ZM72.8754 6.59961V51.1906H67.2402V6.59961H72.8754ZM96.4265 6.59961V51.1906H90.7914V6.59961H96.4265Z" fill="white"/>
<path d="M127.636 32.9426H145.574L145.637 35.8905H126.946L127.636 32.9426ZM135.413 10.4256L136.918 11.3037L124.5 47.3685C124.5 47.5776 124.646 47.7867 124.939 47.9957C125.273 48.163 125.754 48.3094 126.381 48.4348C127.008 48.5602 127.761 48.623 128.639 48.623H129.956V51.1318H117.161V48.623H117.537C118.499 48.623 119.335 48.393 120.046 47.933C120.757 47.4731 121.322 46.6577 121.74 45.4869L135.225 6.59961H141.936L155.986 46.6786C156.278 47.4731 156.738 47.9957 157.366 48.2466C157.993 48.4975 158.766 48.623 159.686 48.623H159.937V51.1318H142.94V48.623H143.943C144.612 48.623 145.281 48.6021 145.95 48.5602C146.661 48.4766 147.226 48.393 147.644 48.3093C148.104 48.1839 148.334 48.0585 148.334 47.933L135.413 10.4256Z" fill="white"/>
<path d="M195.285 51.8363C192.202 51.8363 189.364 51.2748 186.771 50.1519C184.199 49.0085 181.963 47.416 180.064 45.3742C178.166 43.3325 176.696 40.9437 175.654 38.2078C174.633 35.4515 174.123 32.4604 174.123 29.2345V28.5301C174.123 25.3246 174.633 22.3539 175.654 19.618C176.696 16.8821 178.155 14.4933 180.034 12.4516C181.933 10.4099 184.168 8.81738 186.741 7.67402C189.313 6.53066 192.141 5.95898 195.224 5.95898C198.246 5.95898 201.053 6.53066 203.646 7.67402C206.239 8.81738 208.505 10.4099 210.445 12.4516C212.405 14.4933 213.926 16.8821 215.008 19.618C216.09 22.3539 216.632 25.3246 216.632 28.5301V29.2345C216.632 32.4604 216.09 35.4515 215.008 38.2078C213.926 40.9437 212.415 43.3325 210.476 45.3742C208.536 47.416 206.27 49.0085 203.677 50.1519C201.084 51.2748 198.287 51.8363 195.285 51.8363ZM195.285 43.6898C197.531 43.6898 199.45 43.0875 201.043 41.8829C202.636 40.6783 203.85 38.9939 204.687 36.8297C205.525 34.6655 205.943 32.1337 205.943 29.2345V28.4689C205.943 25.6309 205.514 23.14 204.657 20.9962C203.82 18.832 202.605 17.1476 201.012 15.943C199.42 14.7383 197.49 14.136 195.224 14.136C192.835 14.136 190.875 14.7281 189.344 15.9123C187.833 17.0965 186.71 18.7605 185.975 20.9043C185.24 23.0481 184.873 25.5696 184.873 28.4689V29.2345C184.873 32.1337 185.24 34.6757 185.975 36.8603C186.731 39.0245 187.874 40.7089 189.405 41.9135C190.957 43.0977 192.917 43.6898 195.285 43.6898Z" fill="white"/>
<path d="M261.897 39.8922C261.897 38.5243 261.58 37.3707 260.947 36.4315C260.335 35.4924 259.538 34.6961 258.558 34.0427C257.578 33.4098 256.496 32.879 255.312 32.4502C254.148 32.0214 253.025 31.6335 251.943 31.2864C250.371 30.776 248.768 30.1635 247.135 29.4489C245.522 28.7139 244.052 27.8359 242.725 26.8151C241.377 25.7738 240.275 24.5488 239.417 23.14C238.58 21.7108 238.162 20.0366 238.162 18.1174C238.162 16.1982 238.58 14.4831 239.417 12.9723C240.275 11.4614 241.388 10.1853 242.755 9.14406C244.123 8.10278 245.675 7.31672 247.411 6.78588C249.146 6.23462 250.892 5.95898 252.648 5.95898C254.587 5.95898 256.455 6.28566 258.252 6.93901C260.049 7.57194 261.641 8.47029 263.03 9.63407C264.418 10.7978 265.531 12.2066 266.368 13.8604C267.205 15.5142 267.644 17.3619 267.685 19.4037H261.866C261.703 18.1174 261.386 16.9536 260.917 15.9123C260.447 14.8506 259.824 13.9421 259.048 13.1866C258.273 12.4312 257.344 11.8493 256.261 11.441C255.2 11.0122 253.995 10.7978 252.648 10.7978C251.565 10.7978 250.504 10.951 249.463 11.2572C248.442 11.5635 247.533 12.0229 246.737 12.6354C245.92 13.2479 245.267 14.0033 244.777 14.9017C244.307 15.8 244.072 16.8413 244.072 18.0255C244.093 19.3118 244.419 20.4041 245.052 21.3025C245.685 22.1804 246.492 22.9256 247.472 23.5381C248.431 24.1506 249.473 24.6611 250.596 25.0694C251.739 25.4778 252.811 25.8351 253.811 26.1413C255.465 26.6517 257.119 27.2745 258.773 28.0095C260.427 28.7241 261.937 29.6429 263.305 30.7658C264.653 31.8071 265.735 33.0831 266.552 34.594C267.389 36.1049 267.807 37.8505 267.807 39.831C267.807 41.8319 267.358 43.5775 266.46 45.068C265.582 46.5584 264.438 47.7937 263.03 48.7737C261.621 49.7741 260.028 50.5296 258.252 51.04C256.476 51.53 254.7 51.775 252.923 51.775C250.8 51.775 248.707 51.4177 246.645 50.7031C244.603 49.9885 242.827 48.9575 241.316 47.6099C239.969 46.4461 238.897 45.0884 238.1 43.5367C237.325 41.9646 236.906 40.2189 236.845 38.2997H242.633C242.817 39.6881 243.194 40.9233 243.766 42.0054C244.338 43.0671 245.073 43.9655 245.971 44.7005C246.87 45.4559 247.901 46.0276 249.064 46.4155C250.249 46.783 251.535 46.9668 252.923 46.9668C254.026 46.9668 255.108 46.8341 256.17 46.5686C257.252 46.2828 258.211 45.8438 259.048 45.2517C259.885 44.6801 260.569 43.9553 261.1 43.0773C261.631 42.179 261.897 41.1173 261.897 39.8922Z" fill="white"/>
<path d="M315.582 36.2172H325.259C325.198 39.5656 324.534 42.4036 323.269 44.7311C322.003 47.0587 320.206 48.8247 317.878 50.0294C315.551 51.2135 312.795 51.8056 309.609 51.8056C307.078 51.8056 304.832 51.3769 302.872 50.5194C300.912 49.6414 299.248 48.3756 297.88 46.7218C296.532 45.068 295.511 43.0365 294.817 40.6273C294.144 38.218 293.807 35.4617 293.807 32.3583V25.4369C293.807 22.3539 294.174 19.5976 294.909 17.168C295.644 14.7383 296.685 12.6966 298.033 11.0428C299.401 9.36864 301.065 8.10278 303.025 7.24526C304.985 6.38774 307.18 5.95898 309.609 5.95898C312.937 5.95898 315.735 6.58171 318.001 7.82715C320.267 9.0726 322.013 10.8795 323.238 13.2479C324.463 15.6163 325.157 18.4849 325.32 21.8537H315.612C315.633 19.812 315.449 18.2195 315.061 17.0761C314.693 15.9123 314.071 15.0956 313.193 14.6261C312.315 14.136 311.12 13.891 309.609 13.891C308.527 13.891 307.598 14.0952 306.823 14.5036C306.047 14.8915 305.424 15.5346 304.954 16.433C304.485 17.3313 304.138 18.5155 303.913 19.9856C303.689 21.4556 303.576 23.2523 303.576 25.3757V32.3583C303.576 34.4817 303.668 36.2784 303.852 37.7485C304.036 39.1981 304.352 40.3823 304.801 41.301C305.25 42.1994 305.863 42.8527 306.639 43.2611C307.415 43.6694 308.405 43.8736 309.609 43.8736C310.957 43.8736 312.07 43.6694 312.948 43.2611C313.826 42.8323 314.479 42.0667 314.908 40.9641C315.357 39.8616 315.582 38.2793 315.582 36.2172Z" fill="white"/>
<path d="M344.367 51.1906V46.4743L349.237 45.5555V12.2654L344.367 11.3466V6.59961H361.824V11.3466L356.954 12.2654V26.1694H376.463V12.2654L371.593 11.3466V6.59961H376.463H384.15H389.019V11.3466L384.15 12.2654V45.5555L389.019 46.4743V51.1906H371.593V46.4743L376.463 45.5555V32.1721H356.954V45.5555L361.824 46.4743V51.1906H344.367Z" fill="white"/>
<path d="M406.448 51.1906L420.199 6.59961H427.366L440.994 51.1906H435.083L424.732 16.3998C424.487 15.5831 424.283 14.8685 424.119 14.256C423.956 13.6231 423.782 12.98 423.599 12.3266H423.476C423.292 12.98 423.109 13.6231 422.925 14.256C422.762 14.8685 422.557 15.5831 422.312 16.3998L412.206 51.1906H406.448ZM412.818 39.7366L413.86 35.449H433.399L434.532 39.7366H412.818Z" fill="white"/>
<path d="M461.969 6.59961H488.246V12.6941H478.721V45.1267H488.246V51.1906H461.969V45.1267H471.279V12.6941H461.969V6.59961Z" fill="white"/>
<path d="M509.491 51.1318V48.623H510.181C510.976 48.623 511.707 48.5184 512.376 48.3093C513.045 48.0585 513.589 47.703 514.007 47.2431C514.425 46.7413 514.634 46.1141 514.634 45.3614V11.3664C514.634 10.7392 514.425 10.2793 514.007 9.98657C513.589 9.65205 513.045 9.42207 512.376 9.29663C511.707 9.17119 510.976 9.10847 510.181 9.10847H509.491V6.59961H524.482L545.431 43.4798L544.364 44.2952V10.6765C544.364 10.3002 544.134 10.0075 543.674 9.7984C543.256 9.54752 542.692 9.38026 541.981 9.29663C541.312 9.17119 540.559 9.10847 539.723 9.10847H538.469V6.59961H553.02V9.10847H552.33C551.535 9.10847 550.783 9.213 550.072 9.42207C549.403 9.63115 548.859 9.98657 548.441 10.4883C548.023 10.9483 547.814 11.5546 547.814 12.3073V51.1318H541.103L516.892 8.41853L518.084 8.23037V47.0549C518.084 47.4312 518.293 47.7449 518.711 47.9957C519.171 48.2048 519.757 48.3721 520.467 48.4975C521.22 48.5811 521.994 48.623 522.788 48.623H524.043V51.1318H509.491Z" fill="white"/>
</svg>
